<svg width="1166" height="944" viewBox="0 0 1166 944" fill="none" xmlns="http://www.w3.org/2000/svg">
<path d="M642.931 498.648L719.433 506.874L848.074 442.098L951.784 509.568L1166 426.791L835.609 320.765L698.129 473.823L659.782 370.516L716.607 347.976L726.804 375.188L789.866 285.603L783.979 272.807L808.51 223.723L771.713 247.322L769.604 241.841L806.4 188.036L756.146 208.691L675.8 239.114C675.8 239.114 650.785 280.44 635.351 304.706L522.227 0L355.614 255.088L168.598 173.446L190.702 372.451L377.719 426.032L496.729 185.4L530.732 284.052L351.937 468.175L474.633 658.255L173.425 535.645V587.24L115.433 559.887L0 818.562L173.417 723.739V758.609L588.532 755.205L493.327 573.209L685.438 648.044L471.223 944H818.049L653.136 830.041H707.826L926.578 559.453L500.131 498.648L625.937 465.339L642.939 498.648H642.931Z" fill="white"/>
</svg>
